<?xml version="1.0" encoding="UTF-8" standalone="no"?>
<svg
   width="50"
   height="50"
   viewBox="0 0 13.229166 13.229167"
   version="1.1"
   id="svg1"
   xml:space="preserve"
   inkscape:export-filename="logo.svg"
   inkscape:export-xdpi="96"
   inkscape:export-ydpi="96"
   xmlns:inkscape="http://www.inkscape.org/namespaces/inkscape"
   xmlns:sodipodi="http://sodipodi.sourceforge.net/DTD/sodipodi-0.dtd"
   xmlns="http://www.w3.org/2000/svg"
   xmlns:svg="http://www.w3.org/2000/svg"><sodipodi:namedview
     id="namedview1"
     pagecolor="#ffffff"
     bordercolor="#111111"
     borderopacity="1"
     inkscape:showpageshadow="0"
     inkscape:pageopacity="0"
     inkscape:pagecheckerboard="1"
     inkscape:deskcolor="#d1d1d1"
     inkscape:document-units="px" /><defs
     id="defs1" /><g
     inkscape:label="Vrstva 1"
     inkscape:groupmode="layer"
     id="layer1"><g
       id="g1"
       transform="matrix(0.26458333,0,0,0.26458333,1.7234984,1.984375)"
       inkscape:label="Twemoji rocket"><path
         fill="#a0041e"
         d="m 1,17 8,-7 16,1 1,16 -7,8 C 19,35 19.001,29.001 13,23 6.999,16.999 1,17 1,17 Z"
         id="path1" /><path
         fill="#ffac33"
         d="m 0.973,35 c 0,0 -0.036,-7.979 2.985,-11 C 6.979,20.979 15,21.187 15,21.187 15,21.187 14.999,29 11.999,32 c -3,3 -11.026,3 -11.026,3 z"
         id="path2" /><circle
         fill="#ffcc4d"
         cx="8.9989996"
         cy="27"
         r="4"
         id="circle2" /><path
         fill="#55acee"
         d="m 35.999,0 c 0,0 -10,0 -22,10 -6,5 -6,14 -4,16 2,2 11,2 16,-4 10,-12 10,-22 10,-22 z"
         id="path3" /><path
         d="M 26.999,5 C 25.376,5 23.986,5.971 23.358,7.36 23.86,7.133 24.413,7 24.999,7 c 2.209,0 4,1.791 4,4 0,0.586 -0.133,1.139 -0.359,1.64 1.389,-0.627 2.359,-2.017 2.359,-3.64 0,-2.209 -1.791,-4 -4,-4 z"
         id="path4" /><path
         fill="#a0041e"
         d="M 8,28 C 8,28 8,24 9,23 10,22 22.001,12.001 23,13 23.999,13.999 13.999,26 12.999,27 11.999,28 8,28 8,28 Z"
         id="path5" /></g></g></svg>
